<svg width="15" height="17" viewBox="0 0 15 17" fill="none" xmlns="http://www.w3.org/2000/svg">
<path d="M13.75 5.63745H11.25V3.76245C11.25 2.76789 10.8549 1.81406 10.1517 1.1108C9.44839 0.407539 8.49456 0.0124512 7.5 0.0124512C6.50544 0.0124512 5.55161 0.407539 4.84835 1.1108C4.14509 1.81406 3.75 2.76789 3.75 3.76245V5.63745H1.25C0.918479 5.63745 0.600537 5.76915 0.366116 6.00357C0.131696 6.23799 0 6.55593 0 6.88745V15.6375C0 15.969 0.131696 16.2869 0.366116 16.5213C0.600537 16.7558 0.918479 16.8875 1.25 16.8875H13.75C14.0815 16.8875 14.3995 16.7558 14.6339 16.5213C14.8683 16.2869 15 15.969 15 15.6375V6.88745C15 6.55593 14.8683 6.23799 14.6339 6.00357C14.3995 5.76915 14.0815 5.63745 13.75 5.63745ZM5 3.76245C5 3.09941 5.26339 2.46353 5.73223 1.99468C6.20107 1.52584 6.83696 1.26245 7.5 1.26245C8.16304 1.26245 8.79893 1.52584 9.26777 1.99468C9.73661 2.46353 10 3.09941 10 3.76245V5.63745H5V3.76245ZM13.75 15.6375H1.25V6.88745H13.75V15.6375ZM8.4375 11.2625C8.4375 11.4479 8.38252 11.6291 8.2795 11.7833C8.17649 11.9375 8.03007 12.0576 7.85877 12.1286C7.68746 12.1995 7.49896 12.2181 7.3171 12.1819C7.13525 12.1458 6.9682 12.0565 6.83709 11.9254C6.70598 11.7943 6.61669 11.6272 6.58051 11.4453C6.54434 11.2635 6.56291 11.075 6.63386 10.9037C6.70482 10.7324 6.82498 10.586 6.97915 10.4829C7.13332 10.3799 7.31458 10.325 7.5 10.325C7.74864 10.325 7.9871 10.4237 8.16291 10.5995C8.33873 10.7754 8.4375 11.0138 8.4375 11.2625Z" fill="#171717"/>
</svg>
