<svg width="17" height="16" viewBox="0 0 17 16" fill="none" xmlns="http://www.w3.org/2000/svg">
<path d="M16.1735 14.7021C14.9836 12.645 13.15 11.17 11.0102 10.4708C12.0686 9.84072 12.891 8.88058 13.351 7.73785C13.8109 6.59513 13.8831 5.33301 13.5563 4.14532C13.2296 2.95763 12.522 1.91004 11.5422 1.16342C10.5624 0.416808 9.36466 0.0124512 8.13284 0.0124512C6.90102 0.0124512 5.70325 0.416808 4.72349 1.16342C3.74372 1.91004 3.03612 2.95763 2.70936 4.14532C2.3826 5.33301 2.45474 6.59513 2.91471 7.73785C3.37467 8.88058 4.19703 9.84072 5.2555 10.4708C3.11565 11.1693 1.28206 12.6443 0.0922159 14.7021C0.0485822 14.7732 0.0196403 14.8524 0.0070978 14.9349C-0.00544473 15.0174 -0.00133381 15.1016 0.019188 15.1825C0.0397098 15.2634 0.0762269 15.3394 0.126585 15.4059C0.176942 15.4725 0.24012 15.5283 0.312392 15.57C0.384663 15.6118 0.464563 15.6386 0.547378 15.649C0.630193 15.6594 0.714246 15.653 0.794576 15.6304C0.874907 15.6077 0.949888 15.5692 1.0151 15.5171C1.08031 15.465 1.13442 15.4004 1.17425 15.3271C2.64612 12.7833 5.24768 11.2646 8.13284 11.2646C11.018 11.2646 13.6196 12.7833 15.0914 15.3271C15.1313 15.4004 15.1854 15.465 15.2506 15.5171C15.3158 15.5692 15.3908 15.6077 15.4711 15.6304C15.5514 15.653 15.6355 15.6594 15.7183 15.649C15.8011 15.6386 15.881 15.6118 15.9533 15.57C16.0256 15.5283 16.0887 15.4725 16.1391 15.4059C16.1895 15.3394 16.226 15.2634 16.2465 15.1825C16.267 15.1016 16.2711 15.0174 16.2586 14.9349C16.246 14.8524 16.2171 14.7732 16.1735 14.7021ZM3.75784 5.63958C3.75784 4.77428 4.01443 3.92842 4.49516 3.20896C4.97589 2.48949 5.65917 1.92874 6.4586 1.5976C7.25803 1.26647 8.13769 1.17983 8.98636 1.34864C9.83503 1.51745 10.6146 1.93413 11.2264 2.54598C11.8383 3.15784 12.255 3.93739 12.4238 4.78606C12.5926 5.63472 12.5059 6.51439 12.1748 7.31382C11.8437 8.11324 11.2829 8.79653 10.5635 9.27726C9.844 9.75799 8.99813 10.0146 8.13284 10.0146C6.9729 10.0133 5.86082 9.552 5.04062 8.7318C4.22042 7.9116 3.75908 6.79952 3.75784 5.63958Z" fill="#171717"/>
</svg>
