<svg width="18" height="18" viewBox="0 0 18 18" fill="none" xmlns="http://www.w3.org/2000/svg">
<path d="M15.75 6.625H13.25V4.75C13.25 3.75544 12.8549 2.80161 12.1517 2.09835C11.4484 1.39509 10.4946 1 9.5 1C8.50544 1 7.55161 1.39509 6.84835 2.09835C6.14509 2.80161 5.75 3.75544 5.75 4.75V6.625H3.25C2.91848 6.625 2.60054 6.7567 2.36612 6.99112C2.1317 7.22554 2 7.54348 2 7.875V16.625C2 16.9565 2.1317 17.2745 2.36612 17.5089C2.60054 17.7433 2.91848 17.875 3.25 17.875H15.75C16.0815 17.875 16.3995 17.7433 16.6339 17.5089C16.8683 17.2745 17 16.9565 17 16.625V7.875C17 7.54348 16.8683 7.22554 16.6339 6.99112C16.3995 6.7567 16.0815 6.625 15.75 6.625ZM7 4.75C7 4.08696 7.26339 3.45107 7.73223 2.98223C8.20107 2.51339 8.83696 2.25 9.5 2.25C10.163 2.25 10.7989 2.51339 11.2678 2.98223C11.7366 3.45107 12 4.08696 12 4.75V6.625H7V4.75ZM15.75 16.625H3.25V7.875H15.75V16.625ZM10.4375 12.25C10.4375 12.4354 10.3825 12.6167 10.2795 12.7708C10.1765 12.925 10.0301 13.0452 9.85877 13.1161C9.68746 13.1871 9.49896 13.2057 9.3171 13.1695C9.13525 13.1333 8.9682 13.044 8.83709 12.9129C8.70598 12.7818 8.61669 12.6148 8.58051 12.4329C8.54434 12.251 8.56291 12.0625 8.63386 11.8912C8.70482 11.7199 8.82498 11.5735 8.97915 11.4705C9.13332 11.3675 9.31458 11.3125 9.5 11.3125C9.74864 11.3125 9.9871 11.4113 10.1629 11.5871C10.3387 11.7629 10.4375 12.0014 10.4375 12.25Z" fill="#F5F5F5"/>
</svg>
