<svg width="87" height="32" viewBox="0 0 87 32" fill="none" xmlns="http://www.w3.org/2000/svg">
<g clip-path="url(#clip0_2014_151)">
<path d="M15 27C15 27.2652 14.8946 27.5196 14.7071 27.7071C14.5196 27.8946 14.2652 28 14 28H6C5.73478 28 5.48043 27.8946 5.29289 27.7071C5.10536 27.5196 5 27.2652 5 27V5C5 4.73478 5.10536 4.48043 5.29289 4.29289C5.48043 4.10536 5.73478 4 6 4H14C14.2652 4 14.5196 4.10536 14.7071 4.29289C14.8946 4.48043 15 4.73478 15 5C15 5.26522 14.8946 5.51957 14.7071 5.70711C14.5196 5.89464 14.2652 6 14 6H7V26H14C14.2652 26 14.5196 26.1054 14.7071 26.2929C14.8946 26.4804 15 26.7348 15 27ZM28.7075 15.2925L23.7075 10.2925C23.5199 10.1049 23.2654 9.99944 23 9.99944C22.7346 9.99944 22.4801 10.1049 22.2925 10.2925C22.1049 10.4801 21.9994 10.7346 21.9994 11C21.9994 11.2654 22.1049 11.5199 22.2925 11.7075L25.5863 15H14C13.7348 15 13.4804 15.1054 13.2929 15.2929C13.1054 15.4804 13 15.7348 13 16C13 16.2652 13.1054 16.5196 13.2929 16.7071C13.4804 16.8946 13.7348 17 14 17H25.5863L22.2925 20.2925C22.1049 20.4801 21.9994 20.7346 21.9994 21C21.9994 21.2654 22.1049 21.5199 22.2925 21.7075C22.4801 21.8951 22.7346 22.0006 23 22.0006C23.2654 22.0006 23.5199 21.8951 23.7075 21.7075L28.7075 16.7075C28.8005 16.6146 28.8742 16.5043 28.9246 16.3829C28.9749 16.2615 29.0008 16.1314 29.0008 16C29.0008 15.8686 28.9749 15.7385 28.9246 15.6171C28.8742 15.4957 28.8005 15.3854 28.7075 15.2925Z" fill="#FE7F00"/>
<path d="M50.48 7.676C51.584 7.676 52.528 7.836 53.312 8.156C54.096 8.46 54.856 8.94 55.592 9.596L54.344 10.988C53.72 10.492 53.104 10.132 52.496 9.908C51.904 9.668 51.264 9.548 50.576 9.548C49.712 9.548 49 9.748 48.44 10.148C47.88 10.548 47.6 11.132 47.6 11.9C47.6 12.38 47.696 12.788 47.888 13.124C48.08 13.444 48.432 13.74 48.944 14.012C49.472 14.284 50.232 14.572 51.224 14.876C52.264 15.196 53.128 15.54 53.816 15.908C54.504 16.276 55.056 16.788 55.472 17.444C55.904 18.084 56.12 18.9 56.12 19.892C56.12 20.852 55.88 21.7 55.4 22.436C54.936 23.172 54.256 23.748 53.36 24.164C52.48 24.58 51.432 24.788 50.216 24.788C47.928 24.788 46.056 24.076 44.6 22.652L45.848 21.26C46.52 21.804 47.2 22.22 47.888 22.508C48.576 22.78 49.344 22.916 50.192 22.916C51.216 22.916 52.064 22.668 52.736 22.172C53.408 21.66 53.744 20.924 53.744 19.964C53.744 19.42 53.64 18.972 53.432 18.62C53.224 18.252 52.864 17.924 52.352 17.636C51.856 17.348 51.128 17.06 50.168 16.772C48.472 16.26 47.232 15.644 46.448 14.924C45.664 14.204 45.272 13.228 45.272 11.996C45.272 11.164 45.488 10.42 45.92 9.764C46.368 9.108 46.984 8.596 47.768 8.228C48.568 7.86 49.472 7.676 50.48 7.676ZM67.8781 21.548C67.8781 22.06 67.9661 22.444 68.1421 22.7C68.3181 22.94 68.5821 23.124 68.9341 23.252L68.4301 24.788C67.7741 24.708 67.2461 24.524 66.8461 24.236C66.4461 23.948 66.1501 23.5 65.9581 22.892C65.1101 24.156 63.8541 24.788 62.1901 24.788C60.9421 24.788 59.9581 24.436 59.2381 23.732C58.5181 23.028 58.1581 22.108 58.1581 20.972C58.1581 19.628 58.6381 18.596 59.5981 17.876C60.5741 17.156 61.9501 16.796 63.7261 16.796H65.6701V15.86C65.6701 14.964 65.4541 14.324 65.0221 13.94C64.5901 13.556 63.9261 13.364 63.0301 13.364C62.1021 13.364 60.9661 13.588 59.6221 14.036L59.0701 12.428C60.6381 11.852 62.0941 11.564 63.4381 11.564C64.9261 11.564 66.0381 11.932 66.7741 12.668C67.5101 13.388 67.8781 14.42 67.8781 15.764V21.548ZM62.6941 23.132C63.9581 23.132 64.9501 22.476 65.6701 21.164V18.26H64.0141C61.6781 18.26 60.5101 19.124 60.5101 20.852C60.5101 21.604 60.6941 22.172 61.0621 22.556C61.4301 22.94 61.9741 23.132 62.6941 23.132ZM74.6208 11.852V24.5H72.4128V11.852H74.6208ZM73.4928 5.78C73.9568 5.78 74.3328 5.924 74.6208 6.212C74.9088 6.5 75.0528 6.86 75.0528 7.292C75.0528 7.724 74.9088 8.084 74.6208 8.372C74.3328 8.644 73.9568 8.78 73.4928 8.78C73.0448 8.78 72.6768 8.644 72.3888 8.372C72.1008 8.084 71.9568 7.724 71.9568 7.292C71.9568 6.86 72.1008 6.5 72.3888 6.212C72.6768 5.924 73.0448 5.78 73.4928 5.78ZM84.6823 11.564C85.1303 11.564 85.5463 11.612 85.9303 11.708L85.5223 13.868C85.1383 13.772 84.7703 13.724 84.4183 13.724C83.6343 13.724 83.0023 14.012 82.5223 14.588C82.0423 15.164 81.6663 16.06 81.3943 17.276V24.5H79.1863V11.852H81.0823L81.2983 14.42C81.6343 13.476 82.0903 12.764 82.6663 12.284C83.2423 11.804 83.9143 11.564 84.6823 11.564Z" fill="#FE7F00"/>
</g>
<defs>
<clipPath id="clip0_2014_151">
<rect width="87" height="32" fill="white"/>
</clipPath>
</defs>
</svg>
